<?xml version="1.0" encoding="iso-8859-1"?>
<!-- Generator: Adobe Illustrator 16.0.0, SVG Export Plug-In . SVG Version: 6.00 Build 0)  -->
<!DOCTYPE svg PUBLIC "-//W3C//DTD SVG 1.1//EN" "http://www.w3.org/Graphics/SVG/1.1/DTD/svg11.dtd">
<svg version="1.1" id="Capa_1" xmlns="http://www.w3.org/2000/svg" xmlns:xlink="http://www.w3.org/1999/xlink" x="0px" y="0px"
	 width="45.308px" height="45.308px" viewBox="0 0 45.308 45.308" style="enable-background:new 0 0 45.308 45.308;"
	 xml:space="preserve">
<g>
	<path d="M25.155,25.209c0,0.553-1.119,1-2.5,1s-2.5-0.447-2.5-1s1.119-1,2.5-1S25.155,24.656,25.155,25.209z M39.964,28.768
		c0.006,0.105,0.024,0.196,0.024,0.315v7.725c0,4.687-4.353,8.5-9.704,8.5h-15.26c-5.351,0-9.704-3.813-9.704-8.5v-7.724
		c0-0.115,0.008-0.221,0.016-0.324c-2.429-0.898-4.183-3.32-4.183-6.176c0-2.135,0.974-4.033,2.478-5.231
		c0.227-2.12,0.7-4.632,1.506-6.402C5.335,10.504,10.107,0,22.654,0c12.425,0,17.354,10.453,17.561,10.906
		c0.826,1.816,1.306,4.367,1.529,6.501c1.467,1.202,2.41,3.076,2.41,5.177C44.155,25.445,42.398,27.871,39.964,28.768z
		 M25.317,34.311l-0.474-2.123h-4.347L20.01,34.3c0.666-0.299,1.602-0.487,2.645-0.487C23.708,33.812,24.649,34.006,25.317,34.311z
		 M40.155,22.584c0-1.412-0.996-2.559-2.237-2.562c-0.343,0.586-0.734,1.149-1.181,1.687c0.416-1.428,0.644-2.896,0.644-4.354
		c0-2.901-0.893-5.35-2.414-7.294c-0.049-0.063-0.09-0.122-0.144-0.188c-2.651-3.243-7.11-5.02-12.168-5.02
		c-4.876,0-9.187,1.659-11.866,4.686c-0.496,0.595-0.9,1.154-1.203,1.625c-1.052,1.743-1.656,3.813-1.656,6.189
		c0,1.457,0.228,2.926,0.644,4.354c-0.445-0.537-0.838-1.102-1.18-1.688c-1.242,0.003-2.238,1.148-2.238,2.563
		s0.998,2.563,2.242,2.563c0.311,0,0.605-0.072,0.874-0.201c0.289,0.844,0.66,1.647,1.089,2.418
		c1.913-0.103,4.363,0.805,6.535,2.596c0.313,0.258,0.583,0.514,0.834,0.768l0.228-0.986c0.209-0.907,1.017-1.551,1.949-1.551h7.541
		c0.937,0,1.749,0.648,1.952,1.564l0.21,0.941c0.244-0.244,0.505-0.488,0.806-0.736c2.194-1.811,4.674-2.715,6.596-2.592
		c0.428-0.764,0.795-1.564,1.084-2.402c0.254,0.115,0.529,0.184,0.818,0.184C39.157,25.146,40.155,24,40.155,22.584z M15.863,16.517
		c-1.241,0-2.25,1.01-2.25,2.25c0,1.24,1.009,2.25,2.25,2.25s2.25-1.01,2.25-2.25C18.113,17.527,17.104,16.517,15.863,16.517z
		 M29.447,16.517c-1.241,0-2.25,1.01-2.25,2.25c0,1.24,1.009,2.25,2.25,2.25s2.25-1.01,2.25-2.25
		C31.697,17.527,30.688,16.517,29.447,16.517z"/>
</g>
<g>
</g>
<g>
</g>
<g>
</g>
<g>
</g>
<g>
</g>
<g>
</g>
<g>
</g>
<g>
</g>
<g>
</g>
<g>
</g>
<g>
</g>
<g>
</g>
<g>
</g>
<g>
</g>
<g>
</g>
</svg>
