<?xml version="1.0" encoding="iso-8859-1"?>
<!-- Generator: Adobe Illustrator 16.0.0, SVG Export Plug-In . SVG Version: 6.00 Build 0)  -->
<!DOCTYPE svg PUBLIC "-//W3C//DTD SVG 1.1//EN" "http://www.w3.org/Graphics/SVG/1.1/DTD/svg11.dtd">
<svg version="1.1" id="Capa_1" xmlns="http://www.w3.org/2000/svg" xmlns:xlink="http://www.w3.org/1999/xlink" x="0px" y="0px"
	 width="57.805px" height="57.805px" viewBox="0 0 57.805 57.805" style="enable-background:new 0 0 57.805 57.805;"
	 xml:space="preserve">
<g>
	<g>
		<path d="M7.421,15.712c0.825-0.774,1.739-1.453,2.753-2.03c5.008-2.849,11.672-2.849,18.728-2.849c7.055,0,13.719,0,18.729,2.849
			c1.015,0.577,1.929,1.256,2.752,2.03C48.863,8.154,43.271,2.498,35.932,0.28c-0.629-0.124-1.244-0.216-1.843-0.274
			c2.84,1.447,4.476,3.099,4.614,3.243c0.396,0.415,0.384,1.074-0.03,1.473c-0.203,0.194-0.462,0.29-0.722,0.29
			c-0.273,0-0.544-0.107-0.75-0.32c-0.183-0.188-3.292-3.314-8.544-4.417c-5.41,1.114-8.623,4.37-8.667,4.416
			c-0.204,0.213-0.478,0.321-0.752,0.321c-0.259,0-0.519-0.097-0.721-0.29c-0.416-0.399-0.429-1.059-0.031-1.474
			C18.623,3.104,20.262,1.45,23.106,0c-0.126,0.013-0.247,0.017-0.374,0.033C14.971,2.057,9,7.861,7.421,15.712z"/>
		<path d="M53.931,33.528c0-6.581-1.146-11.054-3.153-14.104c-4.274-6.5-12.467-6.508-21.875-6.508
			c-9.409,0-17.601,0.008-21.876,6.507c-2.005,3.05-3.152,7.523-3.152,14.105c0,2.586,0.583,5.057,1.638,7.339
			c-0.149-0.814-0.233-1.644-0.233-2.488c0-3.687,1.481-6.633,3.951-8.895c4.351-3.987,11.783-5.843,19.672-5.843
			s15.32,1.857,19.672,5.843c2.47,2.262,3.951,5.206,3.951,8.895c0,0.845-0.084,1.674-0.234,2.488
			C53.348,38.586,53.931,36.114,53.931,33.528z"/>
		<path d="M11.484,39.299c0-1.008-0.815-1.823-1.823-1.823s-1.823,0.815-1.823,1.823c0,3.074,1.114,5.979,3.001,8.492
			c1.16,1.544,2.616,2.936,4.306,4.121c1.786,1.254,3.824,2.275,6.043,2.997c0.09,0.148,0.179,0.299,0.275,0.441
			c0.135,0.199,0.278,0.391,0.425,0.574c0.897,1.116,1.994,1.88,3.29,1.88h7.446c1.296,0,2.395-0.762,3.29-1.88
			c0.146-0.184,0.289-0.374,0.425-0.574c0.096-0.143,0.185-0.293,0.274-0.441c2.218-0.722,4.256-1.743,6.043-2.997
			c1.69-1.185,3.146-2.577,4.307-4.121c1.888-2.513,3.001-5.418,3.001-8.492c0-1.008-0.815-1.823-1.823-1.823
			c-1.007,0-1.822,0.815-1.822,1.823c0,4.396-3.185,8.455-7.84,10.878c0.225-0.964,0.343-1.825,0.343-2.419
			c0-0.157-0.013-0.313-0.024-0.468c0.013-0.167,0.024-0.334,0.024-0.494c0-2.663-1.69-4.932-4.053-5.807
			c-0.67-0.248-1.39-0.391-2.145-0.391h-7.446c-0.755,0-1.475,0.143-2.145,0.391c-2.361,0.875-4.052,3.145-4.052,5.807
			c0,0.159,0.011,0.327,0.024,0.494c-0.012,0.154-0.024,0.311-0.024,0.468c0,0.597,0.119,1.456,0.343,2.419
			C14.669,47.754,11.484,43.695,11.484,39.299z M25.179,44.686h7.447c1.553,0,2.828,1.164,3.029,2.662
			c-0.263,2.021-1.85,4.444-3.029,4.444h-2.161v-0.427c0-0.861-0.7-1.562-1.562-1.562s-1.562,0.701-1.562,1.562v0.427h-2.161
			c-1.182,0-2.769-2.423-3.03-4.445C22.351,45.85,23.626,44.686,25.179,44.686z"/>
	</g>
</g>
<g>
</g>
<g>
</g>
<g>
</g>
<g>
</g>
<g>
</g>
<g>
</g>
<g>
</g>
<g>
</g>
<g>
</g>
<g>
</g>
<g>
</g>
<g>
</g>
<g>
</g>
<g>
</g>
<g>
</g>
</svg>
