<?xml version="1.0" encoding="iso-8859-1"?>
<!-- Generator: Adobe Illustrator 18.0.0, SVG Export Plug-In . SVG Version: 6.00 Build 0)  -->
<!DOCTYPE svg PUBLIC "-//W3C//DTD SVG 1.1//EN" "http://www.w3.org/Graphics/SVG/1.1/DTD/svg11.dtd">
<svg version="1.1" id="Capa_1" xmlns="http://www.w3.org/2000/svg" xmlns:xlink="http://www.w3.org/1999/xlink" x="0px" y="0px"
	 viewBox="0 0 69.339 69.339" style="enable-background:new 0 0 69.339 69.339;" xml:space="preserve">
<g>
	<path d="M63.17,26.468C62.073,11.739,49.596,0,34.67,0C19.742,0,7.266,11.739,6.17,26.468c-3.419,1.216-5.762,4.442-5.762,8.202
		c0,4.738,3.797,8.605,8.508,8.719c4.598,13.154,14.135,25.95,25.754,25.95c11.62,0,21.157-12.796,25.755-25.95
		c4.71-0.114,8.507-3.981,8.507-8.719C68.932,30.911,66.59,27.685,63.17,26.468z M60.21,39.392c-0.262,0-0.536-0.026-0.835-0.08
		c-0.985-0.176-1.952,0.404-2.258,1.358c-0.958,2.99-2.224,6.037-3.739,8.923c-0.248-0.364-0.666-0.604-1.14-0.604
		c-0.761,0-1.378,0.617-1.378,1.378c0,0.743,0.589,1.345,1.326,1.373c-3.242,5.523-7.409,10.202-12.072,12.345
		c0.201-0.24,0.327-0.545,0.327-0.882c0-0.761-0.617-1.378-1.378-1.378c-0.761,0-1.378,0.617-1.378,1.378
		c0,0.712,0.542,1.291,1.234,1.364c-1.381,0.496-2.8,0.772-4.248,0.772c-1.448,0-2.867-0.276-4.248-0.772
		c0.693-0.073,1.234-0.652,1.234-1.364c0-0.761-0.617-1.378-1.378-1.378S28.9,62.443,28.9,63.204c0,0.337,0.126,0.642,0.327,0.882
		c-4.663-2.143-8.831-6.822-12.072-12.346c0.736-0.028,1.326-0.63,1.326-1.373c0-0.761-0.617-1.378-1.378-1.378
		c-0.474,0-0.892,0.24-1.14,0.604c-1.516-2.887-2.781-5.933-3.74-8.923c-0.27-0.84-1.048-1.39-1.903-1.39
		c-0.117,0-0.236,0.01-0.355,0.031c-0.299,0.054-0.572,0.08-0.834,0.08c-2.604,0-4.722-2.118-4.722-4.722
		c0-2.341,1.68-4.3,3.995-4.658c0.959-0.148,1.674-0.965,1.694-1.936C10.367,14.801,21.391,4,34.67,4s24.302,10.801,24.574,24.077
		c0.02,0.971,0.734,1.787,1.694,1.936c2.314,0.358,3.995,2.317,3.995,4.658C64.932,37.274,62.814,39.392,60.21,39.392z"/>
	<circle cx="22.837" cy="33.176" r="3.333"/>
	<circle cx="46.503" cy="33.176" r="3.333"/>
	<path d="M42.955,49.787c0-1.104-0.896-2-2-2H28.384c-1.104,0-2,0.896-2,2s0.896,2,2,2h12.571
		C42.06,51.787,42.955,50.891,42.955,49.787z"/>
	<circle cx="17.102" cy="46.089" r="1.378"/>
	<circle cx="21.494" cy="46.089" r="1.378"/>
	<circle cx="47.846" cy="46.089" r="1.378"/>
	<circle cx="52.238" cy="46.089" r="1.378"/>
	<circle cx="21.494" cy="50.368" r="1.378"/>
	<circle cx="47.846" cy="50.368" r="1.378"/>
	<circle cx="21.494" cy="54.646" r="1.378"/>
	<circle cx="25.886" cy="54.646" r="1.378"/>
	<circle cx="30.278" cy="54.646" r="1.378"/>
	<circle cx="34.67" cy="54.646" r="1.378"/>
	<circle cx="39.062" cy="54.646" r="1.378"/>
	<circle cx="43.454" cy="54.646" r="1.378"/>
	<circle cx="47.846" cy="54.646" r="1.378"/>
	<circle cx="25.886" cy="58.925" r="1.378"/>
	<circle cx="30.278" cy="58.925" r="1.378"/>
	<circle cx="34.67" cy="58.925" r="1.378"/>
	<circle cx="39.062" cy="58.925" r="1.378"/>
	<circle cx="43.454" cy="58.925" r="1.378"/>
	<circle cx="34.67" cy="63.204" r="1.378"/>
</g>
<g>
</g>
<g>
</g>
<g>
</g>
<g>
</g>
<g>
</g>
<g>
</g>
<g>
</g>
<g>
</g>
<g>
</g>
<g>
</g>
<g>
</g>
<g>
</g>
<g>
</g>
<g>
</g>
<g>
</g>
</svg>
