<?xml version="1.0" encoding="UTF-8"?>
<svg xmlns="http://www.w3.org/2000/svg" xmlns:xlink="http://www.w3.org/1999/xlink" width="199.098941pt" height="37.350158pt" viewBox="0 0 199.098941 37.350158" version="1.1">
<g id="surface1">
<path style=" stroke:none;fill-rule:evenodd;fill:rgb(0%,0%,0%);fill-opacity:1;" d="M 0 36.601562 L 0 0.75 C 0 0.476562 0.0546875 0.28125 0.167969 0.167969 C 0.28125 0.0546875 0.476562 0 0.75 0 L 6.75 0 C 7.023438 0 7.21875 0.0546875 7.332031 0.167969 C 7.445312 0.28125 7.5 0.476562 7.5 0.75 L 7.5 2.773438 C 7.5 3.050781 7.445312 3.242188 7.332031 3.355469 C 7.21875 3.46875 7.023438 3.523438 6.75 3.523438 L 3.75 3.523438 L 3.75 33.824219 L 6.75 33.824219 C 7.023438 33.824219 7.21875 33.882812 7.332031 33.992188 C 7.445312 34.105469 7.5 34.300781 7.5 34.574219 L 7.5 36.601562 C 7.5 36.875 7.445312 37.070312 7.332031 37.179688 C 7.21875 37.292969 7.023438 37.351562 6.75 37.351562 L 0.75 37.351562 C 0.574219 37.351562 0.449219 37.34375 0.375 37.332031 C 0.300781 37.320312 0.21875 37.25 0.132812 37.125 C 0.0429688 37 0 36.824219 0 36.601562 Z M 0 36.601562 "/>
<path style=" stroke:none;fill-rule:evenodd;fill:rgb(0%,0%,0%);fill-opacity:1;" d="M 94.238281 30.9375 L 89.664062 18.074219 C 89.636719 18 89.601562 17.949219 89.550781 17.925781 C 89.53125 17.914062 89.511719 17.910156 89.492188 17.910156 C 89.464844 17.910156 89.441406 17.921875 89.417969 17.945312 C 89.382812 17.980469 89.363281 18.023438 89.363281 18.074219 L 89.363281 30.636719 C 89.363281 30.914062 89.304688 31.105469 89.195312 31.21875 C 89.082031 31.332031 88.886719 31.386719 88.613281 31.386719 L 86.363281 31.386719 C 86.085938 31.386719 85.894531 31.332031 85.78125 31.21875 C 85.667969 31.105469 85.613281 30.914062 85.613281 30.636719 L 85.613281 5.886719 C 85.613281 5.613281 85.667969 5.417969 85.78125 5.304688 C 85.894531 5.195312 86.085938 5.136719 86.363281 5.136719 L 88.425781 5.136719 C 88.800781 5.136719 89.050781 5.300781 89.175781 5.625 L 93.75 18.636719 C 93.773438 18.710938 93.8125 18.761719 93.863281 18.789062 C 93.882812 18.796875 93.902344 18.800781 93.917969 18.800781 C 93.945312 18.800781 93.972656 18.792969 93.992188 18.769531 C 94.03125 18.730469 94.050781 18.6875 94.050781 18.636719 L 94.050781 5.886719 C 94.050781 5.613281 94.105469 5.417969 94.21875 5.304688 C 94.332031 5.195312 94.523438 5.136719 94.800781 5.136719 L 97.050781 5.136719 C 97.324219 5.136719 97.519531 5.195312 97.632812 5.304688 C 97.742188 5.417969 97.800781 5.613281 97.800781 5.886719 L 97.800781 30.636719 C 97.800781 30.914062 97.742188 31.105469 97.632812 31.21875 C 97.519531 31.332031 97.324219 31.386719 97.050781 31.386719 L 94.988281 31.386719 C 94.613281 31.386719 94.363281 31.238281 94.238281 30.9375 Z M 68.101562 12.636719 L 65.886719 12.636719 C 65.613281 12.636719 65.417969 12.582031 65.304688 12.46875 C 65.195312 12.355469 65.136719 12.164062 65.136719 11.886719 C 65.136719 10.789062 65.019531 9.945312 64.78125 9.355469 C 64.542969 8.769531 64.039062 8.476562 63.261719 8.476562 C 62.011719 8.476562 61.386719 9.335938 61.386719 11.0625 C 61.386719 12.710938 62.488281 14.738281 64.6875 17.136719 C 67.460938 20.164062 68.851562 22.988281 68.851562 25.613281 C 68.851562 27.363281 68.367188 28.78125 67.40625 29.867188 C 66.445312 30.957031 65.050781 31.5 63.226562 31.5 C 59.5 31.5 57.636719 29.25 57.636719 24.75 C 57.636719 24.175781 57.886719 23.886719 58.386719 23.886719 L 60.601562 23.886719 C 60.875 23.886719 61.070312 23.945312 61.179688 24.054688 C 61.292969 24.167969 61.351562 24.363281 61.351562 24.636719 C 61.351562 25.738281 61.46875 26.582031 61.707031 27.167969 C 61.945312 27.757812 62.449219 28.050781 63.226562 28.050781 C 64.476562 28.050781 65.101562 27.1875 65.101562 25.460938 C 65.101562 23.761719 64 21.710938 61.800781 19.3125 C 59.023438 16.289062 57.636719 13.488281 57.636719 10.914062 C 57.636719 9.164062 58.117188 7.742188 59.082031 6.65625 C 60.042969 5.570312 61.4375 5.023438 63.261719 5.023438 C 66.988281 5.023438 68.851562 7.273438 68.851562 11.773438 C 68.851562 12.351562 68.601562 12.636719 68.101562 12.636719 Z M 186.5625 12.636719 L 184.351562 12.636719 C 184.074219 12.636719 183.882812 12.582031 183.769531 12.46875 C 183.65625 12.355469 183.601562 12.164062 183.601562 11.886719 C 183.601562 10.789062 183.480469 9.945312 183.242188 9.355469 C 183.007812 8.769531 182.5 8.476562 181.726562 8.476562 C 180.476562 8.476562 179.851562 9.335938 179.851562 11.0625 C 179.851562 12.710938 180.949219 14.738281 183.148438 17.136719 C 185.925781 20.164062 187.3125 22.988281 187.3125 25.613281 C 187.3125 27.363281 186.832031 28.78125 185.867188 29.867188 C 184.90625 30.957031 183.511719 31.5 181.6875 31.5 C 177.960938 31.5 176.101562 29.25 176.101562 24.75 C 176.101562 24.175781 176.351562 23.886719 176.851562 23.886719 L 179.0625 23.886719 C 179.335938 23.886719 179.53125 23.945312 179.644531 24.054688 C 179.757812 24.167969 179.8125 24.363281 179.8125 24.636719 C 179.8125 25.738281 179.929688 26.582031 180.167969 27.167969 C 180.40625 27.757812 180.914062 28.050781 181.6875 28.050781 C 182.9375 28.050781 183.5625 27.1875 183.5625 25.460938 C 183.5625 23.761719 182.460938 21.710938 180.261719 19.3125 C 177.488281 16.289062 176.101562 13.488281 176.101562 10.914062 C 176.101562 9.164062 176.582031 7.742188 177.542969 6.65625 C 178.507812 5.570312 179.898438 5.023438 181.726562 5.023438 C 185.449219 5.023438 187.3125 7.273438 187.3125 11.773438 C 187.3125 12.351562 187.0625 12.636719 186.5625 12.636719 Z M 122.175781 30.636719 L 122.175781 5.886719 C 122.175781 5.613281 122.230469 5.417969 122.34375 5.304688 C 122.457031 5.195312 122.648438 5.136719 122.925781 5.136719 L 130.835938 5.136719 C 131.113281 5.136719 131.304688 5.195312 131.417969 5.304688 C 131.53125 5.417969 131.585938 5.613281 131.585938 5.886719 L 131.585938 7.914062 C 131.585938 8.1875 131.53125 8.382812 131.417969 8.492188 C 131.304688 8.605469 131.113281 8.664062 130.835938 8.664062 L 126.675781 8.664062 C 126.300781 8.664062 126.082031 8.695312 126.019531 8.757812 C 125.957031 8.820312 125.925781 9.039062 125.925781 9.414062 L 125.925781 15.039062 C 125.925781 15.414062 125.957031 15.632812 126.019531 15.695312 C 126.082031 15.757812 126.300781 15.789062 126.675781 15.789062 L 130.835938 15.789062 C 131.113281 15.789062 131.304688 15.84375 131.417969 15.957031 C 131.53125 16.070312 131.585938 16.261719 131.585938 16.539062 L 131.585938 18.5625 C 131.585938 18.835938 131.53125 19.03125 131.417969 19.144531 C 131.304688 19.257812 131.113281 19.3125 130.835938 19.3125 L 126.675781 19.3125 C 126.300781 19.3125 126.082031 19.34375 126.019531 19.40625 C 125.957031 19.46875 125.925781 19.6875 125.925781 20.0625 L 125.925781 27.113281 C 125.925781 27.488281 125.957031 27.707031 126.019531 27.769531 C 126.082031 27.832031 126.300781 27.863281 126.675781 27.863281 L 130.835938 27.863281 C 131.113281 27.863281 131.304688 27.917969 131.417969 28.03125 C 131.53125 28.144531 131.585938 28.335938 131.585938 28.613281 L 131.585938 30.636719 C 131.585938 30.914062 131.53125 31.105469 131.417969 31.21875 C 131.304688 31.332031 131.113281 31.386719 130.835938 31.386719 L 122.925781 31.386719 C 122.75 31.386719 122.625 31.382812 122.550781 31.367188 C 122.476562 31.355469 122.394531 31.289062 122.304688 31.164062 C 122.21875 31.039062 122.175781 30.863281 122.175781 30.636719 Z M 35.136719 20.625 L 37.085938 30.601562 C 37.109375 30.707031 37.117188 30.800781 37.117188 30.882812 C 37.117188 31.21875 36.957031 31.386719 36.636719 31.386719 L 34.273438 31.386719 C 34.074219 31.386719 33.9375 31.382812 33.863281 31.367188 C 33.789062 31.355469 33.707031 31.304688 33.617188 31.21875 C 33.53125 31.132812 33.476562 31 33.449219 30.824219 L 31.648438 21.601562 L 30.449219 21.601562 C 30.074219 21.601562 29.855469 21.632812 29.792969 21.695312 C 29.730469 21.757812 29.699219 21.976562 29.699219 22.351562 L 29.699219 30.636719 C 29.699219 30.863281 29.65625 31.039062 29.570312 31.164062 C 29.480469 31.289062 29.398438 31.355469 29.324219 31.367188 C 29.25 31.382812 29.125 31.386719 28.949219 31.386719 L 26.699219 31.386719 C 26.523438 31.386719 26.398438 31.382812 26.324219 31.367188 C 26.25 31.355469 26.167969 31.289062 26.082031 31.164062 C 25.992188 31.039062 25.949219 30.863281 25.949219 30.636719 L 25.949219 5.886719 C 25.949219 5.613281 26.007812 5.417969 26.117188 5.304688 C 26.230469 5.195312 26.425781 5.136719 26.699219 5.136719 L 31.574219 5.136719 C 33.523438 5.136719 34.949219 5.707031 35.851562 6.84375 C 36.75 7.980469 37.199219 9.914062 37.199219 12.636719 L 37.199219 14.101562 C 37.199219 17.351562 36.511719 19.523438 35.136719 20.625 Z M 158.101562 20.625 L 160.050781 30.601562 C 160.070312 30.707031 160.082031 30.800781 160.082031 30.882812 C 160.082031 31.21875 159.921875 31.386719 159.601562 31.386719 L 157.238281 31.386719 C 157.039062 31.386719 156.898438 31.382812 156.824219 31.367188 C 156.75 31.355469 156.667969 31.304688 156.582031 31.21875 C 156.492188 31.132812 156.4375 31 156.414062 30.824219 L 154.613281 21.601562 L 153.414062 21.601562 C 153.039062 21.601562 152.820312 21.632812 152.757812 21.695312 C 152.695312 21.757812 152.664062 21.976562 152.664062 22.351562 L 152.664062 30.636719 C 152.664062 30.863281 152.617188 31.039062 152.53125 31.164062 C 152.445312 31.289062 152.363281 31.355469 152.289062 31.367188 C 152.210938 31.382812 152.085938 31.386719 151.914062 31.386719 L 149.664062 31.386719 C 149.488281 31.386719 149.363281 31.382812 149.289062 31.367188 C 149.210938 31.355469 149.132812 31.289062 149.042969 31.164062 C 148.957031 31.039062 148.914062 30.863281 148.914062 30.636719 L 148.914062 5.886719 C 148.914062 5.613281 148.96875 5.417969 149.082031 5.304688 C 149.195312 5.195312 149.386719 5.136719 149.664062 5.136719 L 154.539062 5.136719 C 156.488281 5.136719 157.914062 5.707031 158.8125 6.84375 C 159.710938 7.980469 160.164062 9.914062 160.164062 12.636719 L 160.164062 14.101562 C 160.164062 17.351562 159.476562 19.523438 158.101562 20.625 Z M 146.175781 31.386719 L 143.925781 31.386719 C 143.726562 31.386719 143.585938 31.382812 143.511719 31.367188 C 143.4375 31.355469 143.355469 31.304688 143.269531 31.21875 C 143.179688 31.132812 143.125 31 143.101562 30.824219 L 142.761719 28.800781 C 142.6875 28.425781 142.617188 28.207031 142.554688 28.144531 C 142.492188 28.082031 142.289062 28.050781 141.9375 28.050781 L 138.601562 28.050781 C 138.226562 28.050781 138.007812 28.082031 137.945312 28.144531 C 137.882812 28.207031 137.8125 28.425781 137.738281 28.800781 L 137.398438 30.824219 C 137.375 31 137.320312 31.132812 137.230469 31.21875 C 137.144531 31.304688 137.0625 31.355469 136.988281 31.367188 C 136.914062 31.382812 136.773438 31.386719 136.574219 31.386719 L 134.324219 31.386719 C 134.148438 31.386719 134.023438 31.382812 133.949219 31.367188 C 133.875 31.355469 133.804688 31.300781 133.742188 31.199219 C 133.699219 31.128906 133.675781 31.03125 133.675781 30.910156 C 133.675781 30.855469 133.679688 30.804688 133.6875 30.75 L 138.414062 5.8125 C 138.460938 5.539062 138.539062 5.355469 138.636719 5.269531 C 138.738281 5.179688 138.9375 5.136719 139.238281 5.136719 L 141.261719 5.136719 C 141.5625 5.136719 141.761719 5.179688 141.863281 5.269531 C 141.960938 5.355469 142.039062 5.539062 142.085938 5.8125 L 146.8125 30.75 C 146.828125 30.835938 146.835938 30.910156 146.835938 30.976562 C 146.835938 31.125 146.796875 31.222656 146.71875 31.273438 C 146.605469 31.351562 146.425781 31.386719 146.175781 31.386719 Z M 82.875 31.386719 L 80.625 31.386719 C 80.425781 31.386719 80.289062 31.382812 80.210938 31.367188 C 80.136719 31.355469 80.054688 31.304688 79.96875 31.21875 C 79.882812 31.132812 79.824219 31 79.800781 30.824219 L 79.460938 28.800781 C 79.386719 28.425781 79.320312 28.207031 79.257812 28.144531 C 79.195312 28.082031 78.988281 28.050781 78.636719 28.050781 L 75.300781 28.050781 C 74.925781 28.050781 74.707031 28.082031 74.644531 28.144531 C 74.582031 28.207031 74.511719 28.425781 74.4375 28.800781 L 74.101562 30.824219 C 74.074219 31 74.019531 31.132812 73.929688 31.21875 C 73.84375 31.304688 73.761719 31.355469 73.6875 31.367188 C 73.613281 31.382812 73.476562 31.386719 73.273438 31.386719 L 71.023438 31.386719 C 70.851562 31.386719 70.726562 31.382812 70.648438 31.367188 C 70.574219 31.355469 70.507812 31.300781 70.445312 31.199219 C 70.398438 31.128906 70.378906 31.03125 70.378906 30.910156 C 70.378906 30.855469 70.382812 30.804688 70.386719 30.75 L 75.113281 5.8125 C 75.164062 5.539062 75.238281 5.355469 75.335938 5.269531 C 75.4375 5.179688 75.636719 5.136719 75.9375 5.136719 L 77.960938 5.136719 C 78.261719 5.136719 78.460938 5.179688 78.5625 5.269531 C 78.664062 5.355469 78.738281 5.539062 78.789062 5.8125 L 83.511719 30.75 C 83.527344 30.835938 83.535156 30.910156 83.535156 30.976562 C 83.535156 31.125 83.496094 31.222656 83.417969 31.273438 C 83.304688 31.351562 83.125 31.386719 82.875 31.386719 Z M 23.210938 31.386719 L 20.960938 31.386719 C 20.761719 31.386719 20.625 31.382812 20.550781 31.367188 C 20.476562 31.355469 20.394531 31.304688 20.304688 31.21875 C 20.21875 31.132812 20.164062 31 20.136719 30.824219 L 19.800781 28.800781 C 19.726562 28.425781 19.65625 28.207031 19.59375 28.144531 C 19.53125 28.082031 19.324219 28.050781 18.976562 28.050781 L 15.636719 28.050781 C 15.261719 28.050781 15.042969 28.082031 14.980469 28.144531 C 14.917969 28.207031 14.851562 28.425781 14.773438 28.800781 L 14.4375 30.824219 C 14.414062 31 14.355469 31.132812 14.269531 31.21875 C 14.179688 31.304688 14.101562 31.355469 14.023438 31.367188 C 13.949219 31.382812 13.8125 31.386719 13.613281 31.386719 L 11.363281 31.386719 C 11.1875 31.386719 11.0625 31.382812 10.988281 31.367188 C 10.914062 31.355469 10.84375 31.300781 10.78125 31.199219 C 10.738281 31.128906 10.714844 31.03125 10.714844 30.910156 C 10.714844 30.855469 10.71875 30.804688 10.726562 30.75 L 15.449219 5.8125 C 15.5 5.539062 15.574219 5.355469 15.675781 5.269531 C 15.773438 5.179688 15.976562 5.136719 16.273438 5.136719 L 18.300781 5.136719 C 18.601562 5.136719 18.800781 5.179688 18.898438 5.269531 C 19 5.355469 19.074219 5.539062 19.125 5.8125 L 23.851562 30.75 C 23.867188 30.835938 23.875 30.910156 23.875 30.976562 C 23.875 31.125 23.835938 31.222656 23.757812 31.273438 C 23.644531 31.351562 23.460938 31.386719 23.210938 31.386719 Z M 39.261719 5.136719 L 49.011719 5.136719 C 49.289062 5.136719 49.480469 5.195312 49.59375 5.304688 C 49.707031 5.417969 49.761719 5.613281 49.761719 5.886719 L 49.761719 7.914062 C 49.761719 8.1875 49.707031 8.382812 49.59375 8.492188 C 49.480469 8.605469 49.289062 8.664062 49.011719 8.664062 L 46.761719 8.664062 C 46.386719 8.664062 46.167969 8.695312 46.105469 8.757812 C 46.042969 8.820312 46.011719 9.039062 46.011719 9.414062 L 46.011719 30.636719 C 46.011719 30.863281 45.96875 31.039062 45.882812 31.164062 C 45.792969 31.289062 45.710938 31.355469 45.636719 31.367188 C 45.5625 31.382812 45.4375 31.386719 45.261719 31.386719 L 43.011719 31.386719 C 42.835938 31.386719 42.710938 31.382812 42.636719 31.367188 C 42.5625 31.355469 42.480469 31.289062 42.394531 31.164062 C 42.304688 31.039062 42.261719 30.863281 42.261719 30.636719 L 42.261719 9.414062 C 42.261719 9.039062 42.230469 8.820312 42.167969 8.757812 C 42.105469 8.695312 41.898438 8.664062 41.550781 8.664062 L 39.261719 8.664062 C 39.039062 8.664062 38.863281 8.617188 38.738281 8.53125 C 38.613281 8.445312 38.542969 8.363281 38.53125 8.289062 C 38.519531 8.210938 38.511719 8.085938 38.511719 7.914062 L 38.511719 5.886719 C 38.511719 5.710938 38.519531 5.585938 38.53125 5.511719 C 38.542969 5.4375 38.613281 5.355469 38.738281 5.269531 C 38.863281 5.179688 39.039062 5.136719 39.261719 5.136719 Z M 113.925781 31.386719 L 109.050781 31.386719 C 108.773438 31.386719 108.582031 31.332031 108.46875 31.21875 C 108.355469 31.105469 108.300781 30.914062 108.300781 30.636719 L 108.300781 5.886719 C 108.300781 5.664062 108.34375 5.488281 108.429688 5.363281 C 108.519531 5.238281 108.601562 5.167969 108.675781 5.15625 C 108.75 5.144531 108.875 5.136719 109.050781 5.136719 L 113.925781 5.136719 C 117.675781 5.136719 119.550781 7.488281 119.550781 12.1875 C 119.550781 14.363281 119.164062 16.011719 118.386719 17.136719 C 118.210938 17.386719 118.125 17.550781 118.125 17.625 C 118.125 17.726562 118.210938 17.914062 118.386719 18.1875 C 119.164062 19.5625 119.550781 21.460938 119.550781 23.886719 C 119.550781 26.613281 119.101562 28.542969 118.199219 29.679688 C 117.300781 30.820312 115.875 31.386719 113.925781 31.386719 Z M 162.789062 30.636719 L 162.789062 5.886719 C 162.789062 5.613281 162.84375 5.417969 162.957031 5.304688 C 163.070312 5.195312 163.261719 5.136719 163.539062 5.136719 L 168.414062 5.136719 C 170.363281 5.136719 171.789062 5.707031 172.6875 6.84375 C 173.585938 7.980469 174.039062 9.914062 174.039062 12.636719 L 174.039062 23.886719 C 174.039062 26.613281 173.585938 28.542969 172.6875 29.679688 C 171.789062 30.820312 170.363281 31.386719 168.414062 31.386719 L 163.539062 31.386719 C 163.261719 31.386719 163.070312 31.332031 162.957031 31.21875 C 162.84375 31.105469 162.789062 30.914062 162.789062 30.636719 Z M 51.824219 30.636719 L 51.824219 5.886719 C 51.824219 5.613281 51.882812 5.417969 51.992188 5.304688 C 52.105469 5.195312 52.300781 5.136719 52.574219 5.136719 L 54.824219 5.136719 C 55.101562 5.136719 55.292969 5.195312 55.40625 5.304688 C 55.519531 5.417969 55.574219 5.613281 55.574219 5.886719 L 55.574219 30.636719 C 55.574219 30.863281 55.53125 31.039062 55.445312 31.164062 C 55.355469 31.289062 55.273438 31.355469 55.199219 31.367188 C 55.125 31.382812 55 31.386719 54.824219 31.386719 L 52.574219 31.386719 C 52.398438 31.386719 52.273438 31.382812 52.199219 31.367188 C 52.125 31.355469 52.042969 31.289062 51.957031 31.164062 C 51.867188 31.039062 51.824219 30.863281 51.824219 30.636719 Z M 168.414062 8.476562 L 167.289062 8.476562 C 166.914062 8.476562 166.695312 8.507812 166.632812 8.570312 C 166.570312 8.632812 166.539062 8.851562 166.539062 9.226562 L 166.539062 27.261719 C 166.539062 27.664062 166.570312 27.894531 166.632812 27.957031 C 166.695312 28.019531 166.914062 28.050781 167.289062 28.050781 L 168.414062 28.050781 C 168.710938 28.050781 168.976562 28.007812 169.199219 27.917969 C 169.425781 27.832031 169.605469 27.679688 169.742188 27.46875 C 169.882812 27.257812 169.988281 27.054688 170.0625 26.867188 C 170.136719 26.679688 170.1875 26.40625 170.210938 26.042969 C 170.234375 25.757812 170.25 25.46875 170.269531 25.179688 C 170.28125 24.96875 170.289062 24.648438 170.289062 24.226562 L 170.289062 12.300781 C 170.289062 11.875 170.28125 11.554688 170.269531 11.34375 C 170.25 11.054688 170.234375 10.769531 170.210938 10.480469 C 170.1875 10.117188 170.136719 9.84375 170.0625 9.65625 C 169.988281 9.46875 169.882812 9.269531 169.742188 9.054688 C 169.605469 8.84375 169.425781 8.695312 169.199219 8.605469 C 168.976562 8.519531 168.710938 8.476562 168.414062 8.476562 Z M 29.699219 9.226562 L 29.699219 17.511719 C 29.699219 17.886719 29.730469 18.105469 29.792969 18.167969 C 29.855469 18.230469 30.074219 18.261719 30.449219 18.261719 L 31.574219 18.261719 C 31.875 18.261719 32.136719 18.21875 32.363281 18.132812 C 32.585938 18.042969 32.769531 17.894531 32.90625 17.679688 C 33.042969 17.46875 33.148438 17.269531 33.226562 17.082031 C 33.300781 16.894531 33.351562 16.617188 33.375 16.257812 C 33.394531 15.96875 33.414062 15.679688 33.429688 15.394531 C 33.445312 15.179688 33.449219 14.863281 33.449219 14.4375 L 33.449219 12.300781 C 33.449219 11.875 33.445312 11.554688 33.429688 11.34375 C 33.414062 11.054688 33.394531 10.769531 33.375 10.480469 C 33.351562 10.117188 33.300781 9.84375 33.226562 9.65625 C 33.148438 9.46875 33.042969 9.269531 32.90625 9.054688 C 32.769531 8.84375 32.585938 8.695312 32.363281 8.605469 C 32.136719 8.519531 31.875 8.476562 31.574219 8.476562 L 30.449219 8.476562 C 30.074219 8.476562 29.855469 8.507812 29.792969 8.570312 C 29.730469 8.632812 29.699219 8.851562 29.699219 9.226562 Z M 152.664062 9.226562 L 152.664062 17.511719 C 152.664062 17.886719 152.695312 18.105469 152.757812 18.167969 C 152.820312 18.230469 153.039062 18.261719 153.414062 18.261719 L 154.539062 18.261719 C 154.835938 18.261719 155.101562 18.21875 155.324219 18.132812 C 155.550781 18.042969 155.730469 17.894531 155.867188 17.679688 C 156.007812 17.46875 156.113281 17.269531 156.1875 17.082031 C 156.261719 16.894531 156.3125 16.617188 156.335938 16.257812 C 156.359375 15.96875 156.375 15.679688 156.394531 15.394531 C 156.40625 15.179688 156.414062 14.863281 156.414062 14.4375 L 156.414062 12.300781 C 156.414062 11.875 156.40625 11.554688 156.394531 11.34375 C 156.375 11.054688 156.359375 10.769531 156.335938 10.480469 C 156.3125 10.117188 156.261719 9.84375 156.1875 9.65625 C 156.113281 9.46875 156.007812 9.269531 155.867188 9.054688 C 155.730469 8.84375 155.550781 8.695312 155.324219 8.605469 C 155.101562 8.519531 154.835938 8.476562 154.539062 8.476562 L 153.414062 8.476562 C 153.039062 8.476562 152.820312 8.507812 152.757812 8.570312 C 152.695312 8.632812 152.664062 8.851562 152.664062 9.226562 Z M 17.136719 14.664062 L 15.601562 23.773438 C 15.574219 23.960938 15.5625 24.109375 15.5625 24.21875 C 15.5625 24.328125 15.574219 24.398438 15.601562 24.429688 C 15.648438 24.492188 15.863281 24.523438 16.238281 24.523438 L 18.335938 24.523438 C 18.710938 24.523438 18.925781 24.492188 18.976562 24.429688 C 19 24.398438 19.011719 24.328125 19.011719 24.21875 C 19.011719 24.109375 19 23.960938 18.976562 23.773438 L 17.4375 14.664062 C 17.414062 14.5625 17.363281 14.511719 17.289062 14.511719 C 17.210938 14.511719 17.164062 14.5625 17.136719 14.664062 Z M 76.800781 14.664062 L 75.261719 23.773438 C 75.238281 23.960938 75.226562 24.109375 75.226562 24.21875 C 75.226562 24.328125 75.238281 24.398438 75.261719 24.429688 C 75.3125 24.492188 75.523438 24.523438 75.898438 24.523438 L 78 24.523438 C 78.375 24.523438 78.585938 24.492188 78.636719 24.429688 C 78.664062 24.398438 78.675781 24.328125 78.675781 24.21875 C 78.675781 24.109375 78.664062 23.960938 78.636719 23.773438 L 77.101562 14.664062 C 77.074219 14.5625 77.023438 14.511719 76.949219 14.511719 C 76.875 14.511719 76.824219 14.5625 76.800781 14.664062 Z M 140.101562 14.664062 L 138.5625 23.773438 C 138.539062 23.960938 138.523438 24.109375 138.523438 24.21875 C 138.523438 24.328125 138.539062 24.398438 138.5625 24.429688 C 138.613281 24.492188 138.824219 24.523438 139.199219 24.523438 L 141.300781 24.523438 C 141.675781 24.523438 141.886719 24.492188 141.9375 24.429688 C 141.960938 24.398438 141.976562 24.328125 141.976562 24.21875 C 141.976562 24.109375 141.960938 23.960938 141.9375 23.773438 L 140.398438 14.664062 C 140.375 14.5625 140.324219 14.511719 140.25 14.511719 C 140.175781 14.511719 140.125 14.5625 140.101562 14.664062 Z M 112.800781 28.050781 L 113.925781 28.050781 C 114.226562 28.050781 114.488281 28.007812 114.710938 27.917969 C 114.9375 27.832031 115.117188 27.679688 115.257812 27.46875 C 115.394531 27.257812 115.5 27.054688 115.574219 26.867188 C 115.648438 26.679688 115.699219 26.40625 115.726562 26.042969 C 115.746094 25.757812 115.765625 25.46875 115.78125 25.179688 C 115.792969 24.96875 115.800781 24.648438 115.800781 24.226562 L 115.800781 23.136719 C 115.800781 22.710938 115.792969 22.394531 115.78125 22.179688 C 115.765625 21.894531 115.746094 21.605469 115.726562 21.320312 C 115.699219 20.957031 115.648438 20.679688 115.574219 20.492188 C 115.5 20.304688 115.394531 20.105469 115.257812 19.894531 C 115.117188 19.679688 114.9375 19.53125 114.710938 19.445312 C 114.488281 19.355469 114.226562 19.3125 113.925781 19.3125 L 112.800781 19.3125 C 112.425781 19.3125 112.207031 19.34375 112.144531 19.40625 C 112.082031 19.46875 112.050781 19.675781 112.050781 20.023438 L 112.050781 27.300781 C 112.050781 27.675781 112.082031 27.894531 112.144531 27.957031 C 112.207031 28.019531 112.425781 28.050781 112.800781 28.050781 Z M 115.800781 13.011719 L 115.800781 11.699219 C 115.773438 11.023438 115.730469 10.488281 115.667969 10.085938 C 115.605469 9.6875 115.429688 9.320312 115.144531 8.980469 C 114.855469 8.644531 114.449219 8.476562 113.925781 8.476562 L 112.800781 8.476562 C 112.425781 8.476562 112.207031 8.507812 112.144531 8.570312 C 112.082031 8.632812 112.050781 8.851562 112.050781 9.226562 L 112.050781 15.226562 C 112.050781 15.601562 112.082031 15.820312 112.144531 15.882812 C 112.207031 15.945312 112.425781 15.976562 112.800781 15.976562 L 113.925781 15.976562 C 114.648438 15.976562 115.136719 15.710938 115.386719 15.1875 C 115.636719 14.664062 115.773438 13.9375 115.800781 13.011719 Z M 115.800781 13.011719 "/>
<path style=" stroke:none;fill-rule:evenodd;fill:rgb(0%,0%,0%);fill-opacity:1;" d="M 198.347656 37.351562 L 192.347656 37.351562 C 192.074219 37.351562 191.878906 37.292969 191.769531 37.179688 C 191.65625 37.070312 191.597656 36.875 191.597656 36.601562 L 191.597656 34.574219 C 191.597656 34.300781 191.65625 34.105469 191.769531 33.992188 C 191.878906 33.882812 192.074219 33.824219 192.347656 33.824219 L 195.347656 33.824219 L 195.347656 3.523438 L 192.347656 3.523438 C 192.074219 3.523438 191.878906 3.46875 191.769531 3.355469 C 191.65625 3.242188 191.597656 3.050781 191.597656 2.773438 L 191.597656 0.75 C 191.597656 0.476562 191.65625 0.28125 191.769531 0.167969 C 191.878906 0.0546875 192.074219 0 192.347656 0 L 198.347656 0 C 198.625 0 198.816406 0.0546875 198.929688 0.167969 C 199.042969 0.28125 199.097656 0.476562 199.097656 0.75 L 199.097656 36.601562 C 199.097656 36.824219 199.054688 37 198.96875 37.125 C 198.878906 37.25 198.800781 37.320312 198.722656 37.332031 C 198.648438 37.34375 198.523438 37.351562 198.347656 37.351562 Z M 198.347656 37.351562 "/>
</g>
</svg>
