<?xml version="1.0" encoding="iso-8859-1"?>
<!-- Generator: Adobe Illustrator 16.0.0, SVG Export Plug-In . SVG Version: 6.00 Build 0)  -->
<!DOCTYPE svg PUBLIC "-//W3C//DTD SVG 1.1//EN" "http://www.w3.org/Graphics/SVG/1.1/DTD/svg11.dtd">
<svg version="1.1" id="Capa_1" xmlns="http://www.w3.org/2000/svg" xmlns:xlink="http://www.w3.org/1999/xlink" x="0px" y="0px"
	 width="43.001px" height="43px" viewBox="0 0 43.001 43" style="enable-background:new 0 0 43.001 43;" xml:space="preserve">
<g>
	<g>
		<ellipse cx="21.573" cy="28.678" rx="2.5" ry="1"/>
		<circle cx="28.292" cy="24.469" r="2.25"/>
		<circle cx="14.708" cy="24.469" r="2.25"/>
		<path d="M40.611,20.896c1.199-1.433,1.593-4.356,0.841-7.494c-0.981-4.095-3.538-6.993-5.709-6.473
			c-0.568,0.136-1.054,0.499-1.441,1.026c-1.045-3.512-4.672-7.57-10.843-7.57c-5.834,0-14.681,4-18.459,7.214
			c-1.339,1.139-2.677,3.183-3.306,5.803c-0.739,3.084-0.374,5.967,0.778,7.425C0.971,22.026,0,23.922,0,26.053
			c0,2.971,1.885,5.484,4.463,6.291c3.262,6.242,9.806,10.271,17.068,10.271c7.269,0,13.823-4.041,17.081-10.295
			c2.539-0.832,4.39-3.328,4.39-6.269C43.001,23.963,42.064,22.1,40.611,20.896z M24.605,38.012
			c-0.658-0.416-1.771-0.688-3.031-0.688c-1.261,0-2.374,0.271-3.031,0.688V35.2h6.062V38.012L24.605,38.012z M36.758,28.616
			c-0.29,0-0.562-0.066-0.816-0.182c-0.267,0.771-0.599,1.516-0.98,2.225c-1.309,0.059-3.257,1.023-5.13,2.678
			c-0.449,0.396-0.851,0.809-1.226,1.221v-1.356c0-1.104-0.896-2-2-2H16.542c-1.104,0-2,0.896-2,2v1.356
			c-0.376-0.412-0.775-0.822-1.225-1.221c-1.912-1.689-3.908-2.664-5.215-2.684c-0.387-0.715-0.719-1.461-0.986-2.238
			c-0.268,0.129-0.563,0.201-0.873,0.201c-1.244,0-2.242-1.146-2.242-2.563s0.998-2.562,2.242-2.562
			c0.023,0,0.045,0.006,0.068,0.008c0.006-0.748,0.072-1.663,0.187-2.611c0.992-0.847,1.899-2.222,2.538-3.918
			c1.427,1.988,4.533,4.045,11.173,4.749c0,0-0.653-4.879,11.111-5.687h2.471c0.613,2.071,1.633,3.766,2.768,4.776
			c0.118,0.975,0.188,1.917,0.192,2.685c0.003,0,0.005-0.002,0.007-0.002c1.245,0,2.243,1.146,2.243,2.562
			S38.003,28.616,36.758,28.616z"/>
	</g>
</g>
<g>
</g>
<g>
</g>
<g>
</g>
<g>
</g>
<g>
</g>
<g>
</g>
<g>
</g>
<g>
</g>
<g>
</g>
<g>
</g>
<g>
</g>
<g>
</g>
<g>
</g>
<g>
</g>
<g>
</g>
</svg>
